<?xml version="1.0" encoding="UTF-8"?>
<svg width="43px" height="43px" viewBox="0 0 43 43" version="1.1" xmlns="http://www.w3.org/2000/svg" xmlns:xlink="http://www.w3.org/1999/xlink">
    <!-- Generator: Sketch 52.3 (67297) - http://www.bohemiancoding.com/sketch -->
    <title>Logo heavy - 1 line final point</title>
    <desc>Created with Sketch.</desc>
    <g id="Page-1" stroke="none" stroke-width="1" fill="none" fill-rule="evenodd">
        <g id="Desktop-HD" transform="translate(-699.000000, -2216.000000)">
            <g id="Footer" transform="translate(0.000000, 2181.000000)">
                <g id="Logo-heavy---1-line-final-point" transform="translate(699.000000, 35.000000)">
                    <g id="Logo-heavy">
                        <path d="M16.6652538,-6.732962e-16 L26.3347462,6.732962e-16 C32.129618,-3.91204482e-16 34.2309786,0.603366472 36.3494971,1.73636257 C38.4680156,2.86935868 40.1306413,4.53198441 41.2636374,6.65050293 C42.3966335,8.76902145 43,10.870382 43,16.6652538 L43,26.3347462 C43,32.129618 42.3966335,34.2309786 41.2636374,36.3494971 C40.1306413,38.4680156 38.4680156,40.1306413 36.3494971,41.2636374 C34.2309786,42.3966335 32.129618,43 26.3347462,43 L16.6652538,43 C10.870382,43 8.76902145,42.3966335 6.65050293,41.2636374 C4.53198441,40.1306413 2.86935868,38.4680156 1.73636257,36.3494971 C0.603366472,34.2309786 2.60802988e-16,32.129618 -4.48864133e-16,26.3347462 L4.48864133e-16,16.6652538 C-2.60802988e-16,10.870382 0.603366472,8.76902145 1.73636257,6.65050293 C2.86935868,4.53198441 4.53198441,2.86935868 6.65050293,1.73636257 C8.76902145,0.603366472 10.870382,3.91204482e-16 16.6652538,-6.732962e-16 Z" id="Rectangle" fill="#FFFFFF"></path>
                        <g id="Shape" transform="translate(11.000000, 11.000000)" fill="#225CFE">
                            <path d="M13.8969213,13.2939904 C13.3492697,12.2730249 12.5515994,11.5101635 11.6012226,11.0427116 C12.872468,9.90618375 13.6873031,8.10202566 13.6873031,5.75 C13.6873031,3.09927192 12.6832696,1.18536966 11.1348912,0.108987678 C11.2914946,0.0389707544 11.4652937,3.32844259e-17 11.6482854,6.31088724e-30 L15.7617424,6.31088724e-30 C17.9633474,6.31088724e-30 19.7126163,0.553910726 21.0096015,1.6617488 C22.3065867,2.76958687 22.9550695,4.3775413 22.9550695,6.48566035 C22.9550695,7.6902998 22.6934966,8.8088768 22.1703429,9.84142491 C21.6471892,10.873973 20.8352233,11.707528 19.7344208,12.3421148 C18.6336182,12.9767017 17.254911,13.2939904 15.5982576,13.2939904 L13.8969213,13.2939904 Z" id="Combined-Shape"></path>
                            <path d="M10.2336984,11.9991192 C11.0885982,12.4600533 11.7045387,12.9024327 12.0815199,13.3262573 C12.9425437,14.2942712 13.3730491,15.4558704 13.3730491,16.8110898 C13.3730491,18.1232863 13.0351841,19.2418633 12.3594439,20.1668543 C11.6837038,21.0918453 10.7899963,21.7802004 9.67829472,22.2319402 C8.56659314,22.68368 7.3568184,22.9095465 6.0489342,22.9095465 L1.49860982,22.9095465 C0.670950472,22.9095465 2.16097079e-15,22.2451948 2.21838818e-16,21.4256755 L0,1.48387097 C-1.01359038e-16,0.664351662 0.670950472,1.50543254e-16 1.49860982,0 L5.13341983,2.19657029e-16 C9.84180297,2.19657029e-16 12.1959592,1.93599865 12.1959592,5.80805404 C12.1959592,7.07722775 11.8962403,8.19042698 11.2967933,9.14768512 C11.0615691,9.52331515 10.6646074,9.92192314 10.1059081,10.3435091 C9.66704516,10.6746656 9.58240085,11.2953911 9.91684839,11.7299364 C10.0021414,11.840757 10.1101152,11.9324871 10.2336984,11.9991192 Z" id="Path"></path>
                            <ellipse id="Oval" cx="20.2928638" cy="20.3461538" rx="2.6858202" ry="2.65384615"></ellipse>
                        </g>
                    </g>
                </g>
            </g>
        </g>
    </g>
</svg>