<?xml version="1.0" encoding="UTF-8"?>
<svg width="50px" height="50px" viewBox="0 0 50 50" version="1.1" xmlns="http://www.w3.org/2000/svg" xmlns:xlink="http://www.w3.org/1999/xlink">
    <!-- Generator: Sketch 52.3 (67297) - http://www.bohemiancoding.com/sketch -->
    <title>Emoji yellow group </title>
    <desc>Created with Sketch.</desc>
    <g id="Page-1" stroke="none" stroke-width="1" fill="none" fill-rule="evenodd">
        <g id="Desktop-HD" transform="translate(-695.000000, -616.000000)">
            <g id="Emoji-yellow-group-" transform="translate(695.000000, 616.000000)">
                <path d="M23.1595144,-5.80393373e-16 L26.8404856,5.80393373e-16 C32.7804679,-5.10763662e-16 36.5091978,0.928256111 39.768457,2.67132704 C43.0277163,4.41439796 45.585602,6.97228371 47.328673,10.231543 C49.0717439,13.4908022 50,17.2195321 50,23.1595144 L50,26.8404856 C50,32.7804679 49.0717439,36.5091978 47.328673,39.768457 C45.585602,43.0277163 43.0277163,45.585602 39.768457,47.328673 C36.5091978,49.0717439 32.7804679,50 26.8404856,50 L23.1595144,50 C17.2195321,50 13.4908022,49.0717439 10.231543,47.328673 C6.97228371,45.585602 4.41439796,43.0277163 2.67132704,39.768457 C0.928256111,36.5091978 3.40509108e-16,32.7804679 -3.86928916e-16,26.8404856 L3.86928916e-16,23.1595144 C-3.40509108e-16,17.2195321 0.928256111,13.4908022 2.67132704,10.231543 C4.41439796,6.97228371 6.97228371,4.41439796 10.231543,2.67132704 C13.4908022,0.928256111 17.2195321,5.10763662e-16 23.1595144,-5.80393373e-16 Z" id="Rectangle" fill="#FDFAD9"></path>
                <text id="💰" font-family="AppleColorEmoji, Apple Color Emoji" font-size="18" font-weight="normal" letter-spacing="-0.96" fill="#898D98">
                    <tspan x="14" y="32">💰</tspan>
                </text>
            </g>
        </g>
    </g>
</svg>