<?xml version="1.0" encoding="UTF-8"?>
<svg width="661px" height="80px" viewBox="0 0 661 80" version="1.1" xmlns="http://www.w3.org/2000/svg" xmlns:xlink="http://www.w3.org/1999/xlink">
    <!-- Generator: Sketch 52.3 (67297) - http://www.bohemiancoding.com/sketch -->
    <title>illu</title>
    <desc>Created with Sketch.</desc>
    <defs>
        <rect id="path-1" x="0" y="0" width="945" height="80"></rect>
    </defs>
    <g id="Page-1" stroke="none" stroke-width="1" fill="none" fill-rule="evenodd">
        <g id="Desktop-HD" transform="translate(-51.000000, -1889.000000)">
            <g id="illu" transform="translate(47.000000, 1889.000000)">
                <mask id="mask-2" fill="white">
                    <use xlink:href="#path-1"></use>
                </mask>
                <g id="Mask"></g>
                <g id="Group" mask="url(#mask-2)" fill="#2B63FF">
                    <g transform="translate(-81.000000, -138.000000)" id="Rectangle">
                        <path d="M194.96936,-2.38243271e-15 L237.03064,2.38243271e-15 C257.535571,-1.38426201e-15 264.971155,2.13498906 272.467451,6.14405219 C279.963747,10.1531153 285.846885,16.0362525 289.855948,23.5325488 C293.865011,31.0288451 296,38.4644286 296,58.9693596 L296,101.03064 C296,121.535571 293.865011,128.971155 289.855948,136.467451 C285.846885,143.963747 279.963747,149.846885 272.467451,153.855948 C264.971155,157.865011 257.535571,160 237.03064,160 L194.96936,160 C174.464429,160 167.028845,157.865011 159.532549,153.855948 C152.036253,149.846885 146.153115,143.963747 142.144052,136.467451 C138.134989,128.971155 136,121.535571 136,101.03064 L136,58.9693596 C136,38.4644286 138.134989,31.0288451 142.144052,23.5325488 C146.153115,16.0362525 152.036253,10.1531153 159.532549,6.14405219 C167.028845,2.13498906 174.464429,1.38426201e-15 194.96936,-2.38243271e-15 Z"></path>
                        <path d="M86.4212649,219.451905 L118.482546,219.451905 C138.987477,219.451905 146.42306,221.586894 153.919356,225.595957 C161.415653,229.605021 167.29879,235.488158 171.307853,242.984454 C175.316916,250.48075 177.451905,257.916334 177.451905,278.421265 L177.451905,310.482546 C177.451905,330.987477 175.316916,338.42306 171.307853,345.919356 C167.29879,353.415653 161.415653,359.29879 153.919356,363.307853 C146.42306,367.316916 138.987477,369.451905 118.482546,369.451905 L86.4212649,369.451905 C65.9163339,369.451905 58.4807504,367.316916 50.9844541,363.307853 C43.4881578,359.29879 37.6050206,353.415653 33.5959575,345.919356 C29.5868943,338.42306 27.4519053,330.987477 27.4519053,310.482546 L27.4519053,278.421265 C27.4519053,257.916334 29.5868943,250.48075 33.5959575,242.984454 C37.6050206,235.488158 43.4881578,229.605021 50.9844541,225.595957 C58.4807504,221.586894 65.9163339,219.451905 86.4212649,219.451905 Z" transform="translate(102.451905, 294.451905) rotate(-30.000000) translate(-102.451905, -294.451905) "></path>
                        <path d="M437.421265,191.451905 L469.482546,191.451905 C489.987477,191.451905 497.42306,193.586894 504.919356,197.595957 C512.415653,201.605021 518.29879,207.488158 522.307853,214.984454 C526.316916,222.48075 528.451905,229.916334 528.451905,250.421265 L528.451905,282.482546 C528.451905,302.987477 526.316916,310.42306 522.307853,317.919356 C518.29879,325.415653 512.415653,331.29879 504.919356,335.307853 C497.42306,339.316916 489.987477,341.451905 469.482546,341.451905 L437.421265,341.451905 C416.916334,341.451905 409.48075,339.316916 401.984454,335.307853 C394.488158,331.29879 388.605021,325.415653 384.595957,317.919356 C380.586894,310.42306 378.451905,302.987477 378.451905,282.482546 L378.451905,250.421265 C378.451905,229.916334 380.586894,222.48075 384.595957,214.984454 C388.605021,207.488158 394.488158,201.605021 401.984454,197.595957 C409.48075,193.586894 416.916334,191.451905 437.421265,191.451905 Z" transform="translate(453.451905, 266.451905) rotate(30.000000) translate(-453.451905, -266.451905) "></path>
                        <path d="M638.850691,111.451905 L648.053119,111.451905 C657.217369,111.451905 661.588403,112.612225 665.662477,114.791064 C669.736551,116.969903 672.933908,120.16726 675.112746,124.241334 C677.291585,128.315408 678.451905,132.686442 678.451905,141.850691 L678.451905,151.053119 C678.451905,160.217369 677.291585,164.588403 675.112746,168.662477 C672.933908,172.736551 669.736551,175.933908 665.662477,178.112746 C661.588403,180.291585 657.217369,181.451905 648.053119,181.451905 L638.850691,181.451905 C629.686442,181.451905 625.315408,180.291585 621.241334,178.112746 C617.16726,175.933908 613.969903,172.736551 611.791064,168.662477 C609.612225,164.588403 608.451905,160.217369 608.451905,151.053119 L608.451905,141.850691 C608.451905,132.686442 609.612225,128.315408 611.791064,124.241334 C613.969903,120.16726 617.16726,116.969903 621.241334,114.791064 C625.315408,112.612225 629.686442,111.451905 638.850691,111.451905 Z" transform="translate(643.451905, 146.451905) rotate(60.000000) translate(-643.451905, -146.451905) "></path>
                        <path d="M729.989389,211.451905 L736.914422,211.451905 C740.926256,211.451905 742.381044,211.869621 743.847711,212.654002 C745.314378,213.438384 746.465426,214.589433 747.249808,216.0561 C748.03419,217.522766 748.451905,218.977554 748.451905,222.989389 L748.451905,229.914422 C748.451905,233.926256 748.03419,235.381044 747.249808,236.847711 C746.465426,238.314378 745.314378,239.465426 743.847711,240.249808 C742.381044,241.03419 740.926256,241.451905 736.914422,241.451905 L729.989389,241.451905 C725.977554,241.451905 724.522766,241.03419 723.0561,240.249808 C721.589433,239.465426 720.438384,238.314378 719.654002,236.847711 C718.869621,235.381044 718.451905,233.926256 718.451905,229.914422 L718.451905,222.989389 C718.451905,218.977554 718.869621,217.522766 719.654002,216.0561 C720.438384,214.589433 721.589433,213.438384 723.0561,212.654002 C724.522766,211.869621 725.977554,211.451905 729.989389,211.451905 Z" transform="translate(733.451905, 226.451905) rotate(60.000000) translate(-733.451905, -226.451905) "></path>
                        <path d="M298.707446,191.451905 L308.196364,191.451905 C311.762439,191.451905 313.055584,191.823208 314.359288,192.520436 C315.662992,193.217664 316.686146,194.240819 317.383374,195.544522 C318.080603,196.848226 318.451905,198.141371 318.451905,201.707446 L318.451905,211.196364 C318.451905,214.762439 318.080603,216.055584 317.383374,217.359288 C316.686146,218.662992 315.662992,219.686146 314.359288,220.383374 C313.055584,221.080603 311.762439,221.451905 308.196364,221.451905 L298.707446,221.451905 C295.141371,221.451905 293.848226,221.080603 292.544522,220.383374 C291.240819,219.686146 290.217664,218.662992 289.520436,217.359288 C288.823208,216.055584 288.451905,214.762439 288.451905,211.196364 L288.451905,201.707446 C288.451905,198.141371 288.823208,196.848226 289.520436,195.544522 C290.217664,194.240819 291.240819,193.217664 292.544522,192.520436 C293.848226,191.823208 295.141371,191.451905 298.707446,191.451905 Z" transform="translate(303.451905, 206.451905) rotate(80.000000) translate(-303.451905, -206.451905) "></path>
                    </g>
                </g>
            </g>
        </g>
    </g>
</svg>