<?xml version="1.0" encoding="UTF-8"?>
<svg width="715px" height="404px" viewBox="0 0 715 404" version="1.1" xmlns="http://www.w3.org/2000/svg" xmlns:xlink="http://www.w3.org/1999/xlink">
    <!-- Generator: Sketch 52.3 (67297) - http://www.bohemiancoding.com/sketch -->
    <title>Group 4</title>
    <desc>Created with Sketch.</desc>
    <g id="Page-1" stroke="none" stroke-width="1" fill="none" fill-rule="evenodd" opacity="0.02">
        <g id="Desktop" transform="translate(-2.000000, -1.000000)" fill="#1D58FB">
            <g id="Group-4" transform="translate(0.000000, -1.000000)">
                <path d="M256.384354,329.982445 L265.341384,329.982445 C274.867729,329.982445 279.650286,331.23559 284.050286,333.588736 C288.450286,335.941882 291.903432,339.395028 294.256578,343.795028 C296.609724,348.195028 297.862869,352.977585 297.862869,362.50393 L297.862869,371.46096 C297.862869,380.987304 296.609724,385.769862 294.256578,390.169862 C291.903432,394.569862 288.450286,398.023007 284.050286,400.376153 C279.650286,402.729299 274.867729,403.982445 265.341384,403.982445 L256.384354,403.982445 C246.85801,403.982445 242.075452,402.729299 237.675452,400.376153 C233.275452,398.023007 229.822307,394.569862 227.469161,390.169862 C225.116015,385.769862 223.862869,380.987304 223.862869,371.46096 L223.862869,362.50393 C223.862869,352.977585 225.116015,348.195028 227.469161,343.795028 C229.822307,339.395028 233.275452,335.941882 237.675452,333.588736 C242.075452,331.23559 246.85801,329.982445 256.384354,329.982445 Z" id="Rectangle" transform="translate(260.862869, 366.982445) rotate(10.000000) translate(-260.862869, -366.982445) "></path>
                <path d="M515.242633,32.8857232 L540.528814,32.8857232 C548.998242,32.8857232 552.069461,33.7675665 555.165757,35.4234839 C558.262054,37.0794012 560.692045,39.5093927 562.347962,42.605689 C564.00388,45.7019853 564.885723,48.7732045 564.885723,57.2426326 L564.885723,82.5288138 C564.885723,90.9982418 564.00388,94.0694611 562.347962,97.1657574 C560.692045,100.262054 558.262054,102.692045 555.165757,104.347962 C552.069461,106.00388 548.998242,106.885723 540.528814,106.885723 L515.242633,106.885723 C506.773205,106.885723 503.701985,106.00388 500.605689,104.347962 C497.509393,102.692045 495.079401,100.262054 493.423484,97.1657574 C491.767566,94.0694611 490.885723,90.9982418 490.885723,82.5288138 L490.885723,57.2426326 C490.885723,48.7732045 491.767566,45.7019853 493.423484,42.605689 C495.079401,39.5093927 497.509393,37.0794012 500.605689,35.4234839 C503.701985,33.7675665 506.773205,32.8857232 515.242633,32.8857232 Z" id="Rectangle" transform="translate(527.885723, 69.885723) rotate(13.000000) translate(-527.885723, -69.885723) "></path>
                <path d="M332.34848,143.374881 L344.401283,143.374881 C347.521599,143.374881 348.653101,143.699771 349.793841,144.309846 C350.934582,144.919921 351.829842,145.815181 352.439917,146.955921 C353.049992,148.096662 353.374881,149.228164 353.374881,152.34848 L353.374881,164.401283 C353.374881,167.521599 353.049992,168.653101 352.439917,169.793841 C351.829842,170.934582 350.934582,171.829842 349.793841,172.439917 C348.653101,173.049992 347.521599,173.374881 344.401283,173.374881 L332.34848,173.374881 C329.228164,173.374881 328.096662,173.049992 326.955921,172.439917 C325.815181,171.829842 324.919921,170.934582 324.309846,169.793841 C323.699771,168.653101 323.374881,167.521599 323.374881,164.401283 L323.374881,152.34848 C323.374881,149.228164 323.699771,148.096662 324.309846,146.955921 C324.919921,145.815181 325.815181,144.919921 326.955921,144.309846 C328.096662,143.699771 329.228164,143.374881 332.34848,143.374881 Z" id="Rectangle" transform="translate(338.374881, 158.374881) rotate(40.000000) translate(-338.374881, -158.374881) "></path>
                <path d="M692.34848,203.374881 L704.401283,203.374881 C707.521599,203.374881 708.653101,203.699771 709.793841,204.309846 C710.934582,204.919921 711.829842,205.815181 712.439917,206.955921 C713.049992,208.096662 713.374881,209.228164 713.374881,212.34848 L713.374881,224.401283 C713.374881,227.521599 713.049992,228.653101 712.439917,229.793841 C711.829842,230.934582 710.934582,231.829842 709.793841,232.439917 C708.653101,233.049992 707.521599,233.374881 704.401283,233.374881 L692.34848,233.374881 C689.228164,233.374881 688.096662,233.049992 686.955921,232.439917 C685.815181,231.829842 684.919921,230.934582 684.309846,229.793841 C683.699771,228.653101 683.374881,227.521599 683.374881,224.401283 L683.374881,212.34848 C683.374881,209.228164 683.699771,208.096662 684.309846,206.955921 C684.919921,205.815181 685.815181,204.919921 686.955921,204.309846 C688.096662,203.699771 689.228164,203.374881 692.34848,203.374881 Z" id="Rectangle" transform="translate(698.374881, 218.374881) rotate(40.000000) translate(-698.374881, -218.374881) "></path>
                <path d="M12.3484796,3.37488141 L24.4012832,3.37488141 C27.5215988,3.37488141 28.6531006,3.69977105 29.7938414,4.30984587 C30.9345821,4.9199207 31.8298421,5.8151807 32.4399169,6.95592145 C33.0499918,8.09666219 33.3748814,9.22816402 33.3748814,12.3484796 L33.3748814,24.4012832 C33.3748814,27.5215988 33.0499918,28.6531006 32.4399169,29.7938414 C31.8298421,30.9345821 30.9345821,31.8298421 29.7938414,32.4399169 C28.6531006,33.0499918 27.5215988,33.3748814 24.4012832,33.3748814 L12.3484796,33.3748814 C9.22816402,33.3748814 8.09666219,33.0499918 6.95592145,32.4399169 C5.8151807,31.8298421 4.9199207,30.9345821 4.30984587,29.7938414 C3.69977105,28.6531006 3.37488141,27.5215988 3.37488141,24.4012832 L3.37488141,12.3484796 C3.37488141,9.22816402 3.69977105,8.09666219 4.30984587,6.95592145 C4.9199207,5.8151807 5.8151807,4.9199207 6.95592145,4.30984587 C8.09666219,3.69977105 9.22816402,3.37488141 12.3484796,3.37488141 Z" id="Rectangle" transform="translate(18.374881, 18.374881) rotate(-10.000000) translate(-18.374881, -18.374881) "></path>
            </g>
        </g>
    </g>
</svg>