<?xml version="1.0" encoding="UTF-8"?>
<svg width="546px" height="121px" viewBox="0 0 546 121" version="1.1" xmlns="http://www.w3.org/2000/svg" xmlns:xlink="http://www.w3.org/1999/xlink">
    <!-- Generator: Sketch 52.3 (67297) - http://www.bohemiancoding.com/sketch -->
    <title>Group</title>
    <desc>Created with Sketch.</desc>
    <g id="Page-1" stroke="none" stroke-width="1" fill="none" fill-rule="evenodd">
        <g id="Desktop-HD" transform="translate(-24.000000, -2181.000000)" fill="#1D58FB">
            <g id="Footer" transform="translate(0.000000, 2181.000000)">
                <g id="Group-2" transform="translate(-112.000000, -74.000000)">
                    <g id="Group">
                        <path d="M194.96936,-2.38243271e-15 L237.03064,2.38243271e-15 C257.535571,-1.38426201e-15 264.971155,2.13498906 272.467451,6.14405219 C279.963747,10.1531153 285.846885,16.0362525 289.855948,23.5325488 C293.865011,31.0288451 296,38.4644286 296,58.9693596 L296,101.03064 C296,121.535571 293.865011,128.971155 289.855948,136.467451 C285.846885,143.963747 279.963747,149.846885 272.467451,153.855948 C264.971155,157.865011 257.535571,160 237.03064,160 L194.96936,160 C174.464429,160 167.028845,157.865011 159.532549,153.855948 C152.036253,149.846885 146.153115,143.963747 142.144052,136.467451 C138.134989,128.971155 136,121.535571 136,101.03064 L136,58.9693596 C136,38.4644286 138.134989,31.0288451 142.144052,23.5325488 C146.153115,16.0362525 152.036253,10.1531153 159.532549,6.14405219 C167.028845,2.13498906 174.464429,1.38426201e-15 194.96936,-2.38243271e-15 Z" id="Rectangle"></path>
                        <path d="M437.421265,191.451905 L469.482546,191.451905 C489.987477,191.451905 497.42306,193.586894 504.919356,197.595957 C512.415653,201.605021 518.29879,207.488158 522.307853,214.984454 C526.316916,222.48075 528.451905,229.916334 528.451905,250.421265 L528.451905,282.482546 C528.451905,302.987477 526.316916,310.42306 522.307853,317.919356 C518.29879,325.415653 512.415653,331.29879 504.919356,335.307853 C497.42306,339.316916 489.987477,341.451905 469.482546,341.451905 L437.421265,341.451905 C416.916334,341.451905 409.48075,339.316916 401.984454,335.307853 C394.488158,331.29879 388.605021,325.415653 384.595957,317.919356 C380.586894,310.42306 378.451905,302.987477 378.451905,282.482546 L378.451905,250.421265 C378.451905,229.916334 380.586894,222.48075 384.595957,214.984454 C388.605021,207.488158 394.488158,201.605021 401.984454,197.595957 C409.48075,193.586894 416.916334,191.451905 437.421265,191.451905 Z" id="Rectangle" opacity="0.82" transform="translate(453.451905, 266.451905) rotate(30.000000) translate(-453.451905, -266.451905) "></path>
                        <path d="M638.850691,111.451905 L648.053119,111.451905 C657.217369,111.451905 661.588403,112.612225 665.662477,114.791064 C669.736551,116.969903 672.933908,120.16726 675.112746,124.241334 C677.291585,128.315408 678.451905,132.686442 678.451905,141.850691 L678.451905,151.053119 C678.451905,160.217369 677.291585,164.588403 675.112746,168.662477 C672.933908,172.736551 669.736551,175.933908 665.662477,178.112746 C661.588403,180.291585 657.217369,181.451905 648.053119,181.451905 L638.850691,181.451905 C629.686442,181.451905 625.315408,180.291585 621.241334,178.112746 C617.16726,175.933908 613.969903,172.736551 611.791064,168.662477 C609.612225,164.588403 608.451905,160.217369 608.451905,151.053119 L608.451905,141.850691 C608.451905,132.686442 609.612225,128.315408 611.791064,124.241334 C613.969903,120.16726 617.16726,116.969903 621.241334,114.791064 C625.315408,112.612225 629.686442,111.451905 638.850691,111.451905 Z" id="Rectangle" opacity="0.82" transform="translate(643.451905, 146.451905) rotate(60.000000) translate(-643.451905, -146.451905) "></path>
                    </g>
                </g>
            </g>
        </g>
    </g>
</svg>