<?xml version="1.0" encoding="UTF-8"?>
<svg width="595px" height="254px" viewBox="0 0 595 254" version="1.1" xmlns="http://www.w3.org/2000/svg" xmlns:xlink="http://www.w3.org/1999/xlink">
    <!-- Generator: Sketch 52.3 (67297) - http://www.bohemiancoding.com/sketch -->
    <title>Group 4</title>
    <desc>Created with Sketch.</desc>
    <g id="Page-1" stroke="none" stroke-width="1" fill="none" fill-rule="evenodd">
        <g id="Desktop-HD" transform="translate(-123.000000, -108.000000)" fill="#EFF4FF">
            <g id="Group-4" transform="translate(122.000000, 103.000000)">
                <rect id="Rectangle" transform="translate(270.000000, 109.000000) rotate(20.000000) translate(-270.000000, -109.000000) " x="220" y="59" width="100" height="100" rx="32"></rect>
                <rect id="Rectangle" transform="translate(75.000000, 28.000000) rotate(-30.000000) translate(-75.000000, -28.000000) " x="55" y="8" width="40" height="40" rx="13"></rect>
                <rect id="Rectangle" transform="translate(430.000000, 203.000000) rotate(-50.000000) translate(-430.000000, -203.000000) " x="405" y="178" width="50" height="50" rx="17"></rect>
                <rect id="Rectangle" transform="translate(480.000000, 63.000000) rotate(40.000000) translate(-480.000000, -63.000000) " x="465" y="48" width="30" height="30" rx="9"></rect>
                <rect id="Rectangle" transform="translate(585.000000, 248.000000) rotate(-12.000000) translate(-585.000000, -248.000000) " x="575" y="238" width="20" height="20" rx="6"></rect>
                <rect id="Rectangle" transform="translate(130.000000, 215.000000) rotate(40.000000) translate(-130.000000, -215.000000) " x="115" y="200" width="30" height="30" rx="9"></rect>
                <rect id="Rectangle" transform="translate(8.500000, 156.500000) rotate(-10.000000) translate(-8.500000, -156.500000) " x="2" y="150" width="13" height="13" rx="3"></rect>
            </g>
        </g>
    </g>
</svg>