<?xml version="1.0" encoding="UTF-8"?>
<svg width="39px" height="39px" viewBox="0 0 39 39" version="1.1" xmlns="http://www.w3.org/2000/svg" xmlns:xlink="http://www.w3.org/1999/xlink">
    <!-- Generator: Sketch 52.3 (67297) - http://www.bohemiancoding.com/sketch -->
    <title>Logo heavy</title>
    <desc>Created with Sketch.</desc>
    <g id="Page-1" stroke="none" stroke-width="1" fill="none" fill-rule="evenodd">
        <g id="Desktop" transform="translate(-68.000000, -70.000000)">
            <g id="Logo-heavy" transform="translate(68.000000, 70.000000)">
                <path d="M14.1013686,-5.69712169e-16 L24.8986314,5.69712169e-16 C29.8019845,-3.31019177e-16 31.5800588,0.510540861 33.3726514,1.46922987 C35.165244,2.42791888 36.5720811,3.83475604 37.5307701,5.62734863 C38.4894591,7.41994122 39,9.19801553 39,14.1013686 L39,24.8986314 C39,29.8019845 38.4894591,31.5800588 37.5307701,33.3726514 C36.5720811,35.165244 35.165244,36.5720811 33.3726514,37.5307701 C31.5800588,38.4894591 29.8019845,39 24.8986314,39 L14.1013686,39 C9.19801553,39 7.41994122,38.4894591 5.62734863,37.5307701 C3.83475604,36.5720811 2.42791888,35.165244 1.46922987,33.3726514 C0.510540861,31.5800588 2.20679451e-16,29.8019845 -3.79808113e-16,24.8986314 L3.79808113e-16,14.1013686 C-2.20679451e-16,9.19801553 0.510540861,7.41994122 1.46922987,5.62734863 C2.42791888,3.83475604 3.83475604,2.42791888 5.62734863,1.46922987 C7.41994122,0.510540861 9.19801553,3.31019177e-16 14.1013686,-5.69712169e-16 Z" id="Rectangle" fill="#225CFE"></path>
                <g id="Shape" transform="translate(10.000000, 9.000000)" fill="#FFFFFF">
                    <path d="M12.0842794,11.5599916 C11.6080606,10.6721956 10.9144343,10.0088378 10.0880197,9.60235794 C11.1934504,8.61407283 11.9020027,7.0452397 11.9020027,5 C11.9020027,2.69501906 11.0289301,1.03075622 9.68251408,0.0947718935 C9.81869092,0.0338876125 9.96982065,2.89429791e-17 10.1289439,6.31088724e-30 L13.7058629,6.31088724e-30 C15.6203021,6.31088724e-30 17.1414055,0.481661501 18.2692187,1.44499895 C19.3970319,2.4083364 19.96093,3.80655765 19.96093,5.63970465 C19.96093,6.68721722 19.7334753,7.65989287 19.2785591,8.55776079 C18.8236428,9.4556287 18.1175855,10.1804591 17.1603659,10.7322738 C16.2031463,11.2840884 15.0042704,11.5599916 13.5637023,11.5599916 L12.0842794,11.5599916 Z" id="Combined-Shape"></path>
                    <path d="M8.89886815,10.4340167 C9.64225929,10.834829 10.1778597,11.2195067 10.5056695,11.5880499 C11.2543858,12.429801 11.6287384,13.4398873 11.6287384,14.6183389 C11.6287384,15.7593794 11.3349427,16.732055 10.7473425,17.5363951 C10.1597424,18.3407351 9.38260547,18.9393047 8.41590845,19.3321219 C7.44921143,19.7249391 6.39723339,19.9213448 5.25994278,19.9213448 L1.30313898,19.9213448 C0.583435193,19.9213448 1.87910504e-15,19.3436477 1.9290332e-16,18.6310222 L0,1.29032258 C-8.81382936e-17,0.577697097 0.583435193,1.30907178e-16 1.30313898,0 L4.46384333,1.91006112e-16 C8.55808954,1.91006112e-16 10.6051819,1.68347709 10.6051819,5.05048178 C10.6051819,6.15411109 10.3445567,7.12211042 9.82329855,7.9545088 C9.61875577,8.28114361 9.27357164,8.62775926 8.78774615,8.99435574 C8.40612623,9.28231794 8.33252248,9.82207919 8.62334643,10.1999447 C8.69751424,10.2963105 8.79140449,10.3760758 8.89886815,10.4340167 Z" id="Path"></path>
                    <ellipse id="Oval" cx="17.6459685" cy="17.6923077" rx="2.33549583" ry="2.30769231"></ellipse>
                </g>
            </g>
        </g>
    </g>
</svg>